<?xml version="1.0" encoding="UTF-8" standalone="no"?>
<svg id="svg2" xmlns:rdf="http://www.w3.org/1999/02/22-rdf-syntax-ns#" xmlns="http://www.w3.org/2000/svg" viewBox="0 0 1987.7 393.61" version="1.1" xmlns:cc="http://creativecommons.org/ns#" xmlns:dc="http://purl.org/dc/elements/1.1/">
 <metadata id="metadata10">
  <rdf:RDF>
   <cc:Work rdf:about="">
    <dc:format>image/svg+xml</dc:format>
    <dc:type rdf:resource="http://purl.org/dc/dcmitype/StillImage"/>
    <dc:title/>
   </cc:Work>
  </rdf:RDF>
 </metadata>
 <path id="path4" d="m170.52 392.23c-44.542-6.11-85.268-26.94-116.53-59.6-28.18-29.44-45.015-63.315-52.628-105.89-1.81-10.122-1.813-49.862-0.004-60 4.55-25.504 12.728-48.268 24.563-68.377 38.805-65.933 110.8-103.51 187.35-97.788 39.55 2.958 70.05 12.868 96.18 31.255 13.225 9.304 31.26 28.044 34.048 35.378 1.232 3.242-0.823 8.846-3.835 10.458-3.41 1.825-6.43 1.24-15.013-2.912-16.11-7.79-32.735-12.72-52.255-15.494-17.025-2.42-17.073-2.402-9.685 3.65 16.95 13.88 38.688 38.254 51.954 58.253l6.304 9.503 2.354-2.21c4.5-4.223 10.223-14.01 12.332-21.09 2.686-9.017 4.943-11.62 10.077-11.62 5.39 0 8.78 3.47 8.78 8.987 0 9.626-7.54 24.87-17.876 36.142l-6.078 6.63 5.48 12.21c13.89 30.94 20.227 56.926 21.35 87.532l0.625 17 5.222-7.367c6.44-9.087 8.662-14.896 11.438-29.912 1.67-9.04 2.18-15.726 2.22-29.22 0.076-24.41-2.914-41.392-11.258-63.943-3.86-10.434-3.885-12.45-0.2-16.135 3.497-3.497 7.66-3.827 11.378-0.9 4.462 3.508 12.018 25.808 15.92 46.977 2.858 15.52 3.077 49.418 0.415 64.5-15.54 88.04-84.285 153.53-172.61 164.45-11.332 1.4-38.26 1.152-50.026-0.462zm32.4-19.814c1.723-1.83 4.612-6.097 6.418-9.486 3.472-6.513 11.71-30.377 12.765-36.98l0.624-3.906-12.353-1.225c-31.875-3.16-68.124-11.995-93.14-22.703-4.4-1.883-8.15-3.273-8.333-3.09-1.018 1.018-2.34 15.82-2.342 26.214-0.004 17.41 2.644 28.227 8.223 33.597 4.993 4.806 27.055 13.166 44.73 16.95 12.067 2.584 20.972 3.65 31.89 3.822 8.27 0.13 8.426 0.087 11.518-3.192zm33.276-0.765c28.467-6.168 62.75-23.633 76.777-39.114 5.967-6.584 13.34-17.658 16.003-24.035l1.562-3.74-5.26 2.126c-20.56 8.31-44.997 13.398-70.658 14.716l-12.4 0.638-3.354 12.776c-3.286 12.516-10.03 31.048-12.9 35.438-2.62 4.015-2.722 4.003 10.23 1.197zm-147.96-48.16c0.017-13.192 1.035-25.688 2.836-34.772 0.444-2.24-0.255-2.954-6.28-6.414-23.108-13.274-44.966-31.286-58.038-47.827-2.504-3.168-4.753-5.56-4.998-5.315-0.868 0.868 2.043 15.203 4.89 24.076 4 12.47 15.53 35.15 23.61 46.44 7.518 10.502 20.232 24.333 30.533 33.217 3.727 3.214 6.923 5.844 7.103 5.844s0.335-6.863 0.345-15.25zm140.49-31.75c4.132-27.787 6.75-65.902 6.777-98.644 0.015-19.23 0.38-18.356-7.69-18.356-12.853 0-40.666-6.066-57.37-12.512-5.185-2-10.22-3.883-11.192-4.184-3.11-0.96-24.81 46.226-35.04 76.196-4.652 13.626-10.15 32.524-11.212 38.532l-0.623 3.532 9.82 4.134c30.14 12.688 78 23.632 100.32 22.94l4.5-0.138 1.71-11.5zm36.58 10.944c23.425-2.545 45.912-8.76 63.305-17.494l8.776-4.408 0.815-4.772c1.505-8.815 0.84-41.932-1.047-52.272-2.464-13.49-6.35-27.9-10.652-39.5-4.03-10.868-10.967-26.5-11.758-26.5-0.27 0-1.896 0.848-3.61 1.885-9.936 6.005-34.94 13.334-50.217 14.72l-7.106 0.643-0.597 33.125c-0.665 36.88-3.648 74.816-7.302 92.876-0.55 2.714-0.49 2.75 4.562 2.75 2.816 0 9.49-0.475 14.83-1.055zm-167.23-45.07c7.702-29.05 22.925-68.04 39.213-100.43l4.05-8.053-9.663-6.4c-11.562-7.658-27.356-22.66-33.83-32.135-2.577-3.772-4.944-6.854-5.26-6.85-0.314 0.006-3.305 2.143-6.644 4.75-28.452 22.22-49.297 49.715-58.44 77.086l-3.12 9.345 3.54 7.454c10.018 21.097 30.38 41.998 57.71 59.235 5.16 3.254 9.51 5.796 9.67 5.648 0.157-0.147 1.406-4.49 2.773-9.647zm135.92-106.63c-3.478-41.096-10.122-83.855-13.006-83.695-1.7 0.094-16.84 18.003-26.69 31.568-12.106 16.674-27.09 40.642-26.45 42.31 0.706 1.84 26.294 10.098 38.663 12.475 12.87 2.474 14.99 2.754 22.235 2.944l5.735 0.15-0.487-5.75zm38.017 3.133c13.054-2.655 33.5-10.397 33.5-12.685 0-1.67-12.63-20.103-20.174-29.445-11.598-14.36-27.456-29.858-42.237-41.275-1.804-1.394-1.875-1.31-1.27 1.524 4.19 19.658 7.81 46.818 10.235 76.837l0.634 7.838 6.157-0.684c3.387-0.377 9.307-1.325 13.157-2.108zm-234.63-23.36c11.656-14.4 25.78-28.036 40.13-38.738l7.5-5.594v-14.25c0-10.567-0.3-14.083-1.166-13.594-0.64 0.363-4.486 3.646-8.545 7.297-14.941 13.439-30.906 34.809-39.706 53.149-4.61 9.608-11.083 26.533-11.083 28.976 0 0.608 2.08-2.015 4.62-5.83 2.542-3.815 6.255-8.954 8.25-11.42zm118.01-6.09c11.786-19.727 28.63-43.738 39.583-56.426 6.478-7.505 7.024-8.413 4.79-7.957-0.964 0.197-6.478 1.312-12.253 2.48-15.457 3.123-29.79 7.465-45 13.63-12.47 5.057-34 15.794-34 16.956 0 1.764 9.546 14.024 15.487 19.89 7.202 7.113 24.213 19.635 25.985 19.13 0.534-0.153 2.967-3.62 5.408-7.703zm-40.165-55.85c19.794-9.95 36.697-16.173 58.733-21.625 7.67-1.898 14.76-3.45 15.75-3.45s1.802-0.402 1.802-0.892c0-1.112-13.722-4.87-25-6.845-10.732-1.88-35-1.232-42.61 1.14-10.066 3.134-20.08 17.888-21.146 31.15-0.284 3.545-0.246 6.446 0.085 6.446 0.33 0 5.905-2.666 12.387-5.924zm176.91-26.688c-2.114-1.437-7.91-4.544-12.877-6.905-8.624-4.1-9.2-4.234-12.735-2.986-4.793 1.692-11.722 5.233-12.407 6.34-0.295 0.478 3.837 1.18 9.182 1.56 5.345 0.382 13.992 1.517 19.217 2.523 13.48 2.594 14.165 2.556 9.62-0.53zm-52.87-14.608c2.887-1.786 5.25-3.53 5.25-3.876 0-0.824-20.846-4.392-21.55-3.688-0.298 0.298 0.744 2.733 2.315 5.412 1.57 2.68 3.172 5.71 3.557 6.735 0.653 1.734 0.86 1.752 2.94 0.264 1.23-0.878 4.6-3.06 7.487-4.846zm-31.75 0.237c0-0.54-1.978-3.045-4.394-5.567l-4.394-4.586-9.856 0.7c-5.42 0.384-10.04 0.862-10.266 1.06-0.226 0.2 0.996 0.644 2.713 0.987 1.72 0.344 7.98 2.305 13.91 4.36 12.728 4.405 12.287 4.295 12.287 3.047zm397.26 289.01c-5.65-1.343-8.056-3.788-12.84-13.054-5.226-10.118-7.537-11.976-14.885-11.976h-4.55v25h-13v-66.17l16.75 0.334c15.505 0.31 17.122 0.52 21.75 2.834 6.296 3.147 9.5 8.796 9.5 16.744 0 8.538-1.89 11.65-10.92 17.97-0.232 0.16 0.506 1.304 1.64 2.54 1.133 1.235 3.22 4.564 4.637 7.397 2.914 5.825 6.788 9.35 10.278 9.35 2.127 0 2.365 0.44 2.365 4.374 0 4.1-0.196 4.413-3.125 5-3.478 0.694-3.153 0.71-7.6-0.347zm-17.07-35.07c7.898-2.193 10.4-11.013 4.877-17.194-2.802-3.136-3.262-3.28-11.5-3.62l-8.583-0.352v22.207l5.75-0.006c3.163-0.003 7.417-0.47 9.455-1.035zm-113.2 2.04v-33h13v66h-13v-33zm26-0.084v-33.085l16.75 0.337c13.894 0.28 17.393 0.655 20.52 2.207 5.118 2.54 7.77 6.598 8.418 12.888 0.74 7.16-1.362 11.99-6.36 14.628-2.75 1.45-3.264 2.033-1.828 2.067 3.083 0.074 8.297 3.668 10.563 7.28 1.65 2.635 1.98 4.552 1.71 9.987-0.304 6.1-0.656 7.058-3.777 10.278-5.178 5.343-10.446 6.496-29.677 6.496h-16.32v-33.09zm32 21.79c3.66-1.848 5.407-7.798 3.577-12.18-1.928-4.612-4.516-5.717-14.766-6.3l-8.81-0.504v20.278l8.75-0.015c5.03-0.01 9.812-0.552 11.25-1.28zm-3.07-28.17c3.218-1.664 4.084-3.35 4.04-7.868-0.064-6.234-3.97-8.668-13.904-8.668h-7.066v18h7.05c4.23 0 8.18-0.585 9.88-1.463zm92.07 6.372v-33.09l14.75 0.345c13.406 0.313 15.258 0.583 20.317 2.952 11.856 5.554 17.21 14.966 17.284 30.387 0.067 13.955-2.7 20.732-11.07 27.115-5.532 4.22-11.548 5.384-27.83 5.384h-13.45v-33.092zm31.532 20.626c5.826-3.415 7.827-7.935 8.29-18.73 0.325-7.6 0.06-9.38-2.096-14.09-3.353-7.325-7.567-9.876-17.35-10.504l-7.377-0.473v46.264h7.163c5.81 0 7.957-0.466 11.37-2.466zm104.47-20.534v-33h12v66h-12v-33zm25 0.088v-33.088h12.395c20.537 0 30.265 4.496 36.294 16.775 2.59 5.27 2.81 6.635 2.805 17.224-0.007 13.062-1.534 17.887-7.57 23.923-6.344 6.344-10.502 7.51-28.173 7.903l-15.75 0.35v-33.1zm31.773 20.077c6.918-4.935 9.99-17.592 6.872-28.317-3.02-10.386-9.074-14.788-20.395-14.827l-6.25-0.022v46.205l8.25-0.354c6.683-0.285 8.872-0.796 11.523-2.687zm22.227 12.407c0-0.364 21.513-58.73 23.54-63.866 0.597-1.512 1.722-1.746 7.203-1.5l6.496 0.294 11.856 32c6.52 17.6 11.867 32.337 11.88 32.75 0.014 0.412-2.807 0.75-6.268 0.75h-6.294l-2.768-8.5-2.77-8.5h-24.4l-2.887 8.5-2.886 8.5h-6.352c-3.493 0-6.35-0.192-6.35-0.427zm39-26.51c0-1.473-8.2-24.196-8.59-23.805-0.407 0.406-8.41 23.467-8.41 24.23 0 0.282 3.825 0.512 8.5 0.512s8.5-0.42 8.5-0.936zm-166.55 10.434c-8.235-4.195-8.524-16.82-0.482-20.98 5.047-2.61 9.775-1.974 13.573 1.825 4.164 4.163 5.108 7.667 3.328 12.344-2.545 6.687-10.328 9.916-16.42 6.81zm329.8-89.013c-19.176-4.166-33.426-18.097-39.877-38.983-2.67-8.65-2.695-37.335-0.04-45.944 3.3-10.686 7.856-18.737 14.18-25.052 10.964-10.947 23.326-15.504 42.057-15.504 30.082 0 48.85 13.43 56.6 40.5 1.932 6.747 2.29 10.35 2.284 23-0.01 12.67-0.367 16.28-2.334 23.233-7.357 26.012-27.616 40.415-56.53 40.187-5.548-0.044-12.9-0.69-16.338-1.437zm26.944-18.66c8.152-2.442 15.41-11.198 18.503-22.323 3.474-12.497 2.402-38.26-2.02-48.5-5.033-11.66-13.622-17.264-26.463-17.264-21.505 0-31.178 13.89-31.178 44.764 0 24.45 6.303 38.294 19.593 43.03 4.794 1.71 16.316 1.867 21.566 0.294zm-589.43-33.073l-0.26-51.25-18.25-0.273-18.25-0.27v-19.977h100v20h-37v103h-25.98l-0.26-51.25zm77.24-10.25v-61.5h25.965l0.268 24.25 0.267 24.25 23.25 0.268 23.25 0.268v-49.056h27v123h-26v-54h-48v54h-26v-61.5zm122 0v-61.5h83v20h-57v29h53v19.966l-26.25 0.267-26.25 0.267v33l28.75 0.265 28.75 0.264v19.969h-84v-61.5zm173.6 59.75c-0.646-2.13-29.605-120.38-29.605-120.89 0-0.2 6.045-0.36 13.433-0.36 11.937 0 13.488 0.194 13.93 1.75 0.27 0.962 4.37 20.875 9.11 44.25 4.737 23.375 8.954 43.348 9.37 44.384 0.508 1.266 4.676-13.257 12.705-44.275l11.95-46.16 14.947 0.276 14.947 0.274 10.71 45.5c5.89 25.025 10.784 45.725 10.877 46 0.14 0.41 15.163-67.918 19.046-86.623l1.116-5.376h12.428c6.836 0 12.43 0.293 12.43 0.65 0 0.642-22.176 87.677-28.187 110.63l-3.083 11.776-14.59-0.276-14.59-0.276-10.984-46.24c-6.042-25.433-11.303-45.908-11.692-45.5-0.387 0.407-5.528 19.64-11.422 42.74s-11.16 43.687-11.705 45.75l-0.99 3.75h-14.81c-13.237 0-14.867-0.186-15.34-1.75zm283.4-59.75v-61.5l29.25 0.035c33.814 0.04 41.4 0.96 51.018 6.197 9.68 5.27 14.714 13.94 14.727 25.358 0.015 13.5-7.303 23.85-20.033 28.332l-5.254 1.85 5.864 1.705c6.985 2.03 11.424 6.228 13.336 12.61 0.72 2.404 2.343 11.58 3.606 20.392 1.263 8.81 3.196 18.382 4.295 21.27l1.998 5.25h-28.602l-1.177-6.75c-0.648-3.713-1.795-12.013-2.55-18.446-1.748-14.9-2.842-18.857-6.045-21.87-2.484-2.336-3.23-2.447-18.51-2.753l-15.923-0.32v50.14h-26v-61.5zm58.896-11c5.845-3.443 7.604-6.758 7.604-14.324 0-5.12-0.466-7.298-2-9.344-3.762-5.02-7.67-6.11-23.75-6.615l-14.75-0.464v33.431l14.75-0.342c12.558-0.29 15.255-0.64 18.146-2.34zm57.104 11.01v-61.51h26v103h54.073l-0.286 9.75-0.287 9.75-39.75 0.26-39.75 0.263v-61.512zm94 0v-61.71l29.25 0.472c31.98 0.516 35.377 1.014 47.557 6.972 12.57 6.15 22.415 19.66 25.69 35.256 1.894 9.027 1.897 28.977 0.01 37.912-3.373 15.918-12.823 28.71-25.94 35.112-12.66 6.178-16.058 6.69-47.812 7.22l-28.75 0.477v-61.71zm54.78 38.962c10.213-3.032 17.156-10.838 19.86-22.325 1.628-6.917 1.762-25.153 0.237-32.347-3.884-18.326-16.768-26.496-40.377-25.602l-8 0.304-0.26 39.998c-0.145 22-0.022 40.627 0.273 41.395 0.437 1.14 2.64 1.27 11.956 0.714 6.282-0.374 13.622-1.335 16.312-2.134zm117.22-38.887v-61.597l28.75 0.014c30.384 0.016 36.92 0.736 45.254 4.988 10.41 5.31 16.245 14.543 16.35 25.87 0.107 11.804-6.02 20.942-17.48 26.074-2.63 1.177-3.752 2.115-2.853 2.386 16.342 4.933 24.79 14.514 25.755 29.208 0.377 5.758 0.056 7.984-1.77 12.227-3.717 8.64-12.7 15.48-26.005 19.795-4.662 1.512-10.256 1.846-36.75 2.197l-31.25 0.413v-61.58zm60.276 38.616c5.925-2.62 8.088-7.155 7.537-15.8-0.317-4.99-0.925-6.903-2.858-9-4.296-4.656-7.6-5.402-23.922-5.402h-15.033v15.833c0 8.708 0.338 16.19 0.75 16.623 0.413 0.434 7.142 0.54 14.954 0.234 10.97-0.43 15.2-0.996 18.573-2.488zm-2.188-53.482c4.755-3.205 6.06-6.203 5.64-12.97-0.67-10.82-6.378-13.75-26.777-13.75h-10.95v29h14.352c13.283 0 14.604-0.17 17.735-2.28zm46.912 75.652c0-0.346 9.962-28.02 22.137-61.5l22.136-60.872h31.386l21.187 60.75c11.653 33.412 21.18 61.087 21.17 61.5-0.01 0.412-5.805 0.75-12.88 0.75h-12.867l-4.49-12.75-4.49-12.75h-49.532l-4.497 12.75-4.496 12.75h-12.38c-6.81 0-12.383-0.283-12.383-0.628zm75.978-47.122c-0.087-2.84-16.852-51.44-17.335-50.25-0.335 0.825-4.427 12.637-9.094 26.25l-8.485 24.75h17.47c9.607 0 17.457-0.338 17.445-0.75zm56.022-13.75v-61.5h39.551l23.475 48.223 23.474 48.224 0.26-48.223 0.26-48.223h24.98v123h-37.663l-24.418-51.152-24.42-51.15-0.258 51.15-0.26 51.152h-24.98v-61.5zm134 0v-61.5h25.969l0.266 26.633 0.267 26.633 20.5-26.616 20.5-26.616 15.373-0.017c12.152-0.013 15.17 0.245 14.4 1.234-0.535 0.687-10.703 13.043-22.594 27.456l-21.622 26.207 23.11 31.793c12.712 17.487 23.776 32.806 24.588 34.044l1.475 2.25-16.365-0.03-16.365-0.027-21.5-31.45-21.5-31.448-0.264 31.476-0.264 31.478h-25.973v-61.5z" fill="#fff"/>
</svg>
