<?xml version="1.0" encoding="UTF-8" standalone="no"?>
<!-- Created with Inkscape (http://www.inkscape.org/) -->
<svg id="svg2" xmlns:rdf="http://www.w3.org/1999/02/22-rdf-syntax-ns#" xmlns="http://www.w3.org/2000/svg" xml:space="preserve" viewBox="0 0 401.04 125.67" version="1.1" xmlns:cc="http://creativecommons.org/ns#" xmlns:dc="http://purl.org/dc/elements/1.1/"><metadata id="metadata8"><rdf:RDF><cc:Work rdf:about=""><dc:format>image/svg+xml</dc:format><dc:type rdf:resource="http://purl.org/dc/dcmitype/StillImage"/><dc:title/></cc:Work></rdf:RDF></metadata><defs id="defs6"><clipPath id="clipPath16" clipPathUnits="userSpaceOnUse"><path id="path18" d="m0 792h612v-792h-612v792z"/></clipPath></defs><g id="g10" transform="matrix(1.25 0 0 -1.25 -163.09 562.35)"><g id="g12"><g id="g14" clip-path="url(#clipPath16)"><g fill="#fff"><g id="g20" transform="translate(193.76 350.5)"><path id="path22" d="m0 0h-16.258v0.575c1.928 0.117 2.619 0.385 2.619 2.704v13.36c0 2.371-0.722 2.553-2.619 2.704v0.568h15.986l0.09-4.299h-0.752c-0.451 2.679-1.233 3.162-4.576 3.162h-4.063c-0.634 0-0.995 0-0.995-1.025v-6.676h4.636c2.679 0 2.981 0.719 3.313 2.855h0.692v-6.978h-0.692c-0.363 2.404-0.814 2.829-3.313 2.856l-4.636 0.064v-7.467c0-1.227 0-1.259 4.485-1.259 3.765 0 5.269 0.901 6.595 3.939h0.842l-1.354-5.083z" fill="#fff"/></g><g id="g24" transform="translate(203.36 360.45)"><path id="path26" d="m0 0c0.572-0.059 1.174-0.086 1.808-0.086 1.114 0 5.147 0 5.147 4.566 0 4.306-4.394 4.365-5.719 4.365-0.903 0-1.236-0.027-1.236-1.026v-7.819zm-5.599 9.955h7.949c4.153 0 7.886-1.594 7.886-5.408 0-2.353-1.324-3.58-1.836-4.065-1.295-1.234-3.22-1.776-6.382-1.776-0.721 0-1.295 0.032-2.018 0.092v-5.475c0-2.194 0.514-2.645 2.83-2.704v-0.575h-8.429v0.575c2.531 0.176 2.531 0.869 2.531 3.037v13.027c0 2.135-0.334 2.495-2.531 2.704v0.568z" fill="#fff"/></g><g id="g28" transform="translate(151.28 370.26)"><path id="path30" d="m0 0c-2.319-0.234-2.83-0.686-2.83-3.848v-7.851c0-2.405 0-8.062-7.798-8.062-7.466 0-7.466 5.866-7.466 7.676v9.381c0 2.227-0.421 2.56-2.709 2.704v0.575h8.519v-0.575c-2.378-0.176-2.739-0.568-2.739-2.704v-9.629c0-1.921 0-6.102 5.237-6.102 2.349 0 4.065 0.96 4.939 2.372 0.391 0.667 0.691 1.659 0.691 4.096v8.119c0 3.221-0.722 3.731-2.829 3.848v0.575h6.985v-0.575z" fill="#fff"/></g><g id="g32" transform="translate(174.85 370.17)"><path id="path34" d="m0 0c-1.898-0.217-2.861-0.334-2.861-3.855v-15.822h-0.512l-13.244 16.482h-0.063v-11.726c0-3.102 0.634-3.763 2.83-3.854v-0.569h-7.072v0.569c2.285 0.15 2.92 0.601 2.92 3.854v13.261c-1.234 1.51-1.717 1.66-2.92 1.66v0.568h5.147l11.531-14.47h0.06v10.047c0 3.462-0.845 3.705-2.891 3.855v0.568h7.075v-0.568z" fill="#fff"/></g><g id="g36" transform="translate(167.78 447.55)"><path id="path38" d="m0 0-2.283-0.601-3.594-1.548-2.759-0.96 0.599-0.124h2.639l1.44-0.236 1.319-0.365 1.678-0.836 1.561-0.484 0.357-0.235-2.875-0.242-1.802 0.118-2.278 0.49-3.236 1.071-0.842 0.118-1.2-0.118-0.719 0.118 0.599 0.365 0.841 0.36 1.198 1.071 1.2 0.843 1.919 1.078 1.078 0.476 2.16 0.477 1.082 0.124 1.079-0.124 1.077-0.241 1.198-0.353-1.436-0.242z" fill-rule="evenodd" fill="#fff"/></g><g id="g40" transform="translate(155.9 446.47)"><path id="path42" d="m0 0-2.877-3.593-1.917-1.555-1.921-1.209-0.361-0.47 0.361 0.119 2.156 1.195 1.682 0.476l2.877 0.131 3.72-0.131-1.919-0.953-2.52-0.837-7.677-1.678-0.836-0.366-0.721-0.601h-0.241l0.241 0.601 0.721 0.959 1.435 2.647 0.841 1.189 1.44 1.803 0.957 1.078 1.203 0.953 1.557 0.836 1.799 0.726 2.041 0.476-2.041-1.796z" fill-rule="evenodd" fill="#fff"/></g><g id="g44" transform="translate(189.73 446.59)"><path id="path46" d="m0 0-0.835 0.477 1.676-0.118 1.558-0.477 1.32-0.601 2.04-1.319 1.2-1.196-2.161 0.477-1.318 0.608-1.2 0.594-1.8 1.32l-0.48 0.235z" fill-rule="evenodd" fill="#fff"/></g><g id="g48" transform="translate(171.02 446.47)"><path id="path50" d="m0 0 2.396 0.235 1.921-0.117 2.039-0.595 1.081-0.594h-2.04l-3.839-0.484-2.041 0.118-0.598-0.118v-0.124l0.241-0.124 1.919-0.588 1.076-0.484 3.481-2.88-2.998 0.718-2.039 0.725-0.839 0.595-2.162 1.797-1.436 0.483 2.64 1.078 1.198 0.359z" fill-rule="evenodd" fill="#fff"/></g><g id="g52" transform="translate(198.25 443.83)"><path id="path54" d="m0 0-1.56 2.038 2.398-1.202 1.199-0.954 0.483-0.477 0.476-0.96 0.723-1.437 0.359-2.038 0.481-1.084 0.119-0.954-0.479 0.6-0.961 0.719-1.56 0.719-2.158 0.718-1.08 0.484-1.919 1.071-1.678 1.32 0.719-0.118 3.958-0.712 1.078-0.607 1.922-1.314 0.358-0.124-0.24 0.719-1.56 1.797l-1.078 1.796z" fill-rule="evenodd" fill="#fff"/></g><g id="g56" transform="translate(146.31 443.24)"><path id="path58" d="m0 0-1.438-2.756-0.599-1.68-0.481-1.554-0.718-1.803-1.441-2.516-1.079-1.437v-0.358l0.48 0.228 0.719 0.967 0.961 0.96 1.321 0.961 1.437 0.593 3.478 0.955 2.042 0.725-3.241-2.992-2.279-1.68-1.199-0.842-3.838-1.914-1.078-0.966-1.442-1.666 0.122 0.593 0.599 1.321 0.36 4.311 0.48 2.155 1.078 2.64 0.841 1.437 0.958 1.444 1.201 1.436 1.679 1.197 1.919 1.201-0.842-0.96z" fill-rule="evenodd" fill="#fff"/></g><g id="g60" transform="translate(180.73 442.4)"><path id="path62" d="m0 0 1.319-0.96 1.083-0.954 0.717-0.961 0.361-0.718-1.202 0.843-1.678 0.718-2.039 1.202-2.877 1.908 2.156-0.236 1.441-0.483 0.719-0.359z" fill-rule="evenodd" fill="#fff"/></g><g id="g64" transform="translate(203.88 440.48)"><path id="path66" d="m0 0 0.839-0.602 0.841-0.961 0.84-1.318 0.959-1.914 0.718-2.398 0.36-2.998v-3.711l-0.12-0.118-2.041 2.267-2.156 1.686-2.282 1.914-1.198 1.326-1.076 1.431-0.842 1.554 0.482-0.117 0.836-0.595 1.319-0.725 2.043-0.953 0.957-0.719 1.317-1.438 0.6-0.842 0.604-1.32h0.24v0.236l-0.478 1.684-0.966 1.804-0.357 1.071-0.357 1.071-0.484 3.122-0.236 0.844-0.362 0.719z" fill-rule="evenodd" fill="#fff"/></g><g id="g68" transform="translate(136.47 432.45)"><path id="path70" d="m0 0-0.24-0.719-0.24-1.567 0.601-6.102-0.478-5.154h0.236l0.121 0.353 0.361 1.437 0.599 1.561 1.079 1.679 1.557 1.555 3.24 2.162 0.842 0.836-0.6-2.279-1.201-2.399-0.958-1.429-1.323-1.444-2.876-2.992-1.2-3.234-0.12-0.124-0.238 0.124v0.235l-0.961 3.959-0.72 1.673-0.48 1.56-0.362 2.032-0.118 1.085 0.241 2.397 0.357 1.313 1.082 2.639 0.719 1.438 0.959 1.202 0.961 1.319-0.84-3.116z" fill-rule="evenodd" fill="#fff"/></g><g id="g72" transform="translate(172.46 434.13)"><path id="path74" d="m0 0 3.6-0.248 3.478-0.836 3.118-1.437 2.881-1.796 2.519-2.281 2.157-2.639 1.8-2.998 1.2-3.227-18.833 2.274-0.719 0.117-0.242 0.241v0.249l1.445 1.07 0.477 0.719 0.358 0.954v1.085l-0.48 1.201-0.958 0.954-0.481 0.242-1.32 0.242-1.199-0.242-0.599-0.242-0.837-0.954-0.482-1.201-0.123-1.085 0.363-0.954 0.601-0.719 1.318-1.07 0.12-0.249-0.241-0.241-0.719-0.117-18.95-2.274 1.318 3.227 1.678 2.998 2.16 2.639 2.52 2.281 2.879 1.796 3.234 1.437 3.363 0.836 3.596 0.248z" fill-rule="evenodd" fill="#fff"/></g><g id="g76" transform="translate(210.24 431.25)"><path id="path78" d="m0 0 0.721-1.679 0.595-1.914 0.123-2.397v-1.196l-0.24-1.202-0.596-2.038-1.082-2.762-0.601-2.033-0.482-0.477-0.359 2.15-1.917 2.527-1.681 2.875-0.838 1.678-0.721 1.68-0.481 1.914 3.963-3.842 1.197-1.56 0.598-1.078 0.602-2.875 0.119 0.843 0.358 5.155 0.839 5.036-0.117 1.195z" fill-rule="evenodd" fill="#fff"/></g><g id="g80" transform="translate(131.79 419.26)"><path id="path82" d="m0 0 0.359-1.561 0.598-1.791 0.84-1.919 2.162-3.476 0.96-2.633 0.359-1.921 0.36-0.476 0.119 0.117v0.359l-0.119 4.672 0.6 2.397 0.716 1.685 1.564 2.15 0.717 1.319 0.481 0.607v-2.881l-0.361-2.88-0.837-3.11-1.321-3.599-0.48-1.561-0.119-0.602v-2.148l-0.244 0.234-1.198 1.803-3.717 4.313-1.08 1.678-0.599 1.084-0.481 1.307-0.478 1.796-0.12 1.922 0.357 2.162 0.722 2.391 0.24-0.243v-1.195z" fill-rule="evenodd" fill="#fff"/></g><g id="g84" transform="translate(205.08 416.87)"><path id="path86" d="m0 0 1.439-2.757 0.721-2.148 0.24-1.085v-0.954l-0.24-2.763 0.122-0.359 0.357 0.483 0.72 2.515 0.84 2.163 3.362 5.631 0.835 2.273 0.124-0.719v-2.156l-0.124-1.437-0.234-1.561-0.601-1.672-0.841-1.685-0.957-1.438-1.204-1.672-1.559-1.68-1.436-2.645-0.365-0.353-0.117 0.712 0.117 0.726v0.96l-0.117 1.195-1.8 5.036-0.598 2.516-0.12 1.201 0.12 2.869 0.242 1.568 1.074-2.764z" fill-rule="evenodd" fill="#fff"/></g><g id="g88" transform="translate(165.5 415.91)"><path id="path90" d="m0 0 0.844-0.241 0.841-0.366 0.957-0.712 0.962-1.202 0.837-1.672 0.598-2.405 0.122-3.233-0.239-3.233-0.481-2.881-0.722-2.391-0.836-2.045-0.841-1.555-1.319-2.032-3.238 1.197-2.879 1.795-2.641 2.156-2.278 2.521-1.798 2.875-1.439 3.115-0.838 3.352-0.243 3.594 0.123 2.644 0.479 2.51l14.029-1.791z" fill-rule="evenodd" fill="#fff"/></g><g id="g92" transform="translate(179.41 415.91)"><path id="path94" d="m0 0 14.034 1.791 0.479-2.51 0.241-2.644-0.358-3.594-0.841-3.352-1.321-3.115-1.919-2.875-2.157-2.521-2.638-2.156-2.999-1.795-3.238-1.197-1.32 2.032-0.84 1.555-0.717 2.045-0.723 2.391-0.598 2.881-0.241 3.233 0.241 3.233 0.478 2.405 0.843 1.672 0.959 1.202 0.957 0.712 0.838 0.366l0.84 0.241z" fill-rule="evenodd" fill="#fff"/></g><g id="g96" transform="translate(212.52 407.28)"><path id="path98" d="m0 0 0.364 0.836 0.477 0.602-0.477-2.876-1.081-3.481-0.719-1.797-1.081-1.679-1.199-1.437-1.32-1.195-2.158-1.444-3.118-1.43-2.998-1.562 0.596 1.921v3.351l0.364 3.716 0.957 3.477 0.96 2.515 0.84 1.443 0.721-5.513-0.12-1.803-0.245-1.562-0.475-1.789-0.48-1.196-1.082-1.685-0.119-0.719 0.361 0.242 1.078 0.96 3.6 4.546 5.394 5.638 0.603 0.837 0.357 1.084z" fill-rule="evenodd" fill="#fff"/></g><g id="g100" transform="translate(134.31 402.61)"><path id="path102" d="m0 0 3.957-3.24 4.44-5.148 0.598-0.6v0.241l-1.917 3.476-0.48 1.914-0.242 1.319v1.561l0.122 1.797 0.359 1.92 0.721 2.156 1.199-2.639 0.719-2.632 0.242-1.563 0.119-1.554-0.119-3.717 0.478-1.92 0.72-2.156-0.24-0.124h-0.36l-6.717 2.881-1.319 0.842-1.32 1.196-1.319 1.554-1.203 1.797-0.835 2.28-0.481 2.404-0.121 2.875 0.359-1.085 0.721-1.438 1.197-1.684 0.722-0.713z" fill-rule="evenodd" fill="#fff"/></g><g id="g104" transform="translate(146.31 399.61)"><path id="path106" d="m0 0 2.761-3.233 1.559-2.163 1.08-1.92 1.678-3.71 0.602-0.843 0.838-0.719 0.96-0.719-0.121-0.117-0.961-0.125h-2.756l-1.8-0.351-1.799-0.125-2.16 0.125-2.399 0.476-2.638 0.953-2.518 1.68-2.4 2.521-1.919 3.593 1.559-1.554 2.161-1.797 1.32-0.726 1.316-0.6 1.32-0.353 2.52-0.359 2.639-0.484 2.517-0.836 2.52-1.202 0.721-0.117-0.361 0.352-1.557 0.849-0.723 0.595-0.84 0.843-0.718 1.078-0.838 1.43-0.842 2.64-0.721 4.918z" fill-rule="evenodd" fill="#fff"/></g><g id="g108" transform="translate(197.17 396.26)"><path id="path110" d="m0 0-0.48-2.279-0.601-1.68-0.359-0.836-2.16-2.639-0.719-0.594-1.319-0.967-0.363-0.353 0.123-0.125 1.316 0.243 4.44 2.038 6.001 2.038 1.434 0.594 1.444 0.719 1.438 0.967 1.2 1.077 0.957 1.19-0.84-2.15-1.077-1.555-2.039-2.162-1.44-1.195-1.678-1.202-2.043-1.078-2.156-0.594-2.402-0.242-5.398 0.594-2.276-0.118 1.558 1.314 0.84 0.849 2.521 4.906 0.96 1.561 1.197 1.555 2.4 2.397l-0.479-2.273z" fill-rule="evenodd" fill="#fff"/></g><g id="g112" transform="translate(180.61 385.59)"><path id="path114" d="m0 0 2.521-0.117 2.155-0.248 1.92-0.471 5.279-1.443 1.799-0.36 2.042-0.117h0.957l1.198 0.352 1.44 0.608-1.2-1.078-0.959-0.601-1.436-0.601-1.921-0.601-2.281-0.352-2.879-0.125-2.276 0.125-2.041 0.476-1.921 0.477-5.397 1.921-1.559 0.476-1.679 0.118-1.561-0.235 2.161-0.719 2.638-1.561 2.162-1.561 1.438-1.313 1.198-1.196-1.319-0.836-1.799 2.032-1.321 1.313-1.437 1.201-1.676 1.085-1.803 0.947-1.32 0.359-1.437-0.359-1.799-0.947-1.682-1.085-2.759-2.514-1.798-2.032-1.32 0.836 1.199 1.196 1.44 1.313 2.16 1.561 2.76 1.561 2.035 0.719-1.557 0.235-1.678-0.118-1.56-0.476-5.398-1.921-1.92-0.477-2.038-0.476-2.281-0.125-2.877 0.125-2.28 0.352-1.919 0.601-1.439 0.601-0.958 0.601-1.201 1.078 0.721-0.359 1.318-0.484 1.802-0.117 1.797 0.117 1.798 0.36 5.28 1.443 1.917 0.471 2.28 0.248 2.4 0.117 4.796-0.365 4.198-0.948 4.199 0.948 4.678 0.365z" fill-rule="evenodd" fill="#fff"/></g></g><path id="path116" d="m292.04 392.81h-44.361v44.324h44.361v-44.324z" stroke="#fff" stroke-width="2" fill="none"/><text id="text118" fill="#ffffff" transform="matrix(1 0 0 -1 253.13 400.06)"><tspan id="tspan120" font-weight="bold" font-size="43.016px" y="0" x="0" font-family="Times New Roman" fill="#ffffff">G</tspan></text>
<path id="path122" d="m344.8 392.81h-44.359v44.324h44.359v-44.324z" stroke="#fff" stroke-width="2" fill="none"/><text id="text124" fill="#ffffff" transform="matrix(1 0 0 -1 306.87 400.06)"><tspan id="tspan126" font-weight="bold" font-size="43.016px" y="0" x="0" font-family="Times New Roman" fill="#ffffff">R</tspan></text>
<path id="path128" d="m397.55 392.81h-44.362v44.324h44.362v-44.324z" stroke="#fff" stroke-width="2" fill="none"/><text id="text130" fill="#ffffff" transform="matrix(1 0 0 -1 367 400.06)"><tspan id="tspan132" font-weight="bold" font-size="43.016px" y="0" x="0" font-family="Times New Roman" fill="#ffffff">I</tspan></text>
<path id="path134" d="m450.3 392.81h-44.356v44.324h44.356v-44.324z" stroke="#fff" stroke-width="2" fill="none"/><text id="text136" fill="#ffffff" transform="matrix(1 0 0 -1 412.59 400.06)"><tspan id="tspan138" font-weight="bold" font-size="43.016px" y="0" x="0" font-family="Times New Roman" fill="#ffffff">D</tspan></text>
<text id="text140" fill="#ffffff" transform="matrix(1 0 0 -1 260.07 358.51)"><tspan id="tspan142" font-size="34.089px" y="0" x="0 40.293198 71.109657 103.83509 134.65155 167.37698" font-family="Times New Roman" fill="#ffffff">Geneva</tspan></text>
<g id="g144" transform="translate(231.27 448.38)"><path id="path146" d="m0 0v-97.538" stroke="#fff" stroke-width="3" fill="none"/></g></g></g></g></svg>
