<?xml version="1.0" encoding="UTF-8" standalone="no"?>
<svg id="svg2" xmlns:rdf="http://www.w3.org/1999/02/22-rdf-syntax-ns#" xmlns="http://www.w3.org/2000/svg" viewBox="0 0 282.62 283.74" version="1.1" xmlns:cc="http://creativecommons.org/ns#" xmlns:dc="http://purl.org/dc/elements/1.1/">
 <metadata id="metadata10">
  <rdf:RDF>
   <cc:Work rdf:about="">
    <dc:format>image/svg+xml</dc:format>
    <dc:type rdf:resource="http://purl.org/dc/dcmitype/StillImage"/>
    <dc:title/>
   </cc:Work>
  </rdf:RDF>
 </metadata>
 <path id="path4" d="m126.66 283.46c-0.825-0.2-4.875-0.907-9-1.576-43.124-6.984-82.818-36.217-102.47-75.466-6.427-12.835-9.738-22.14-12.81-36-3.004-13.54-3.21-43.687-0.382-56 3.187-13.87 5.79-21.683 10.83-32.45 7.894-16.876 15.486-27.78 28.286-40.624 22.026-22.103 49.574-35.822 81.064-40.373 8.973-1.297 28.992-1.297 37.966 0 58.454 8.447 104.72 50.378 118.5 107.4 14.035 58.062-9.9 118.92-59.72 151.85-15.92 10.52-30.287 16.49-51.268 21.303-5.917 1.357-37.26 2.84-41 1.942zm-26.215-73.803c8.736-3.116 14.9-9.33 17.093-17.238 0.702-2.53 1.112-15.292 1.116-34.7l0.005-30.7 5.75-0.3c5.656-0.295 5.75-0.35 5.75-3.3v-3l-9.25-0.288-9.25-0.287v12.36l-4.897-4.58c-6.447-6.032-11.052-7.95-19.29-8.036-5.733-0.06-7.656 0.424-13.463 3.386-23.1 11.783-23.463 45.898-0.61 57.15 5.688 2.8 7.635 3.248 13.848 3.193 8.75-0.075 16.7-3.488 21.392-9.178l3.02-3.664v7.985c0 9.12-0.985 13.347-4.223 18.134-6.11 9.034-24.96 11.04-35.625 3.795l-3.61-2.454-2.516 2.515-2.515 2.516 2.995 2.467c5.02 4.138 13.893 6.558 22.495 6.133 4.125-0.203 9.428-1.057 11.785-1.898zm-23.53-35.258c-8.115-4.106-12.403-11.876-12.403-22.48 0-10.93 4.816-19.223 13.677-23.56 4.727-2.31 6.374-2.627 11.148-2.134 10.845 1.12 20.244 10.322 21.914 21.454 1.463 9.76-3.344 20.4-11.723 25.946-6.167 4.08-15.45 4.398-22.612 0.774zm84.745 4.52c0-2.945-0.095-3-5.153-3h-5.153l0.602-11.75c1.073-20.902 8.603-42.896 20.86-60.93 1.598-2.35 2.843-5.525 2.843-7.25v-3.07h-52v20h7.14l-0.255-6.25-0.256-6.25 18.634-0.272 18.633-0.272-5.762 9.272c-3.17 5.1-6.908 11.972-8.306 15.272-5.85 13.804-9.827 32.548-9.827 46.298v5.35l-5.246-0.278c-4.348-0.23-5.304 0.023-5.585 1.484-0.84 4.363 0.062 4.646 14.798 4.646h14.032v-3zm48-70v-10h20v-6h-20v-20.13l-2.75 0.317-2.75 0.317-0.287 9.75-0.286 9.75h-19.927v6h20v20h6v-10z" fill="#fff"/>
</svg>
