<?xml version="1.0" encoding="UTF-8" standalone="no"?>
<!-- Created with Inkscape (http://www.inkscape.org/) -->
<svg id="svg3103" xmlns:rdf="http://www.w3.org/1999/02/22-rdf-syntax-ns#" xmlns="http://www.w3.org/2000/svg" viewBox="0 0 195 168.52" version="1.1" xmlns:cc="http://creativecommons.org/ns#" xmlns:dc="http://purl.org/dc/elements/1.1/">
 <metadata id="metadata3109">
  <rdf:RDF>
   <cc:Work rdf:about="">
    <dc:format>image/svg+xml</dc:format>
    <dc:type rdf:resource="http://purl.org/dc/dcmitype/StillImage"/>
    <dc:title/>
   </cc:Work>
  </rdf:RDF>
 </metadata>
 <path id="path3117" fill="#f9f9f9" d="m46.192 165.26c-9.073-14.92-46.192-80.215-46.192-81.261 0-0.733 10.741-19.933 23.868-42.666l23.868-41.333h49.764 49.76l23.87 41.333c13.13 22.733 23.87 41.933 23.87 42.667 0 0.73405-10.74 19.934-23.868 42.667l-23.87 41.33-49.54 0.26-49.545 0.26-1.983-3.26zm108.85-47.01c10.578-18.288 19.233-33.7 19.233-34.25s-8.6547-15.962-19.233-34.25l-19.233-33.25h-38.304-38.304l-19.233 33.25c-10.585 18.288-19.239 33.7-19.239 34.25s8.6547 15.962 19.233 34.25l19.233 33.25h38.304 38.304l19.233-33.25zm-100.83 13.96c-2.314-2.36-4.208-4.98-4.208-5.84 0-0.85317 2.184-3.5361 4.8533-5.9622 2.6693-2.426 11.073-10.396 18.675-17.712l13.821-13.301-7.071-7.2c-3.889-3.9596-8.6384-8.9468-10.554-11.083-1.9158-2.1359-3.9251-3.6104-4.465-3.2767-0.53994 0.3337-3.1816 3.9915-5.8704 8.1285s-5.6668 7.7763-6.6178 8.0875l-1.7292 0.56568-8.0208-6.1057c-4.412-3.357-8.021-6.519-8.021-7.025 0-1.296 10.559-17.625 14.733-22.785 5.141-6.355 25.105-20.245 28.992-20.171l1.7745 0.03353 5.3964 7.1681c2.968 3.9425 5.5841 7.886 5.8135 8.7635l0.4172 1.5954-9.0787 6.1038-9.0787 6.1038 11.206 10.599c6.1633 5.8296 11.458 10.597 11.765 10.593 0.30759-0.0032 5.4763-4.6389 11.486-10.301l10.927-10.296-6.8353-6.7683-6.8353-6.7683 8.3864-8.4302c4.61-4.638 8.86-8.432 9.44-8.432 0.57803 0 3.9422 2.9172 7.476 6.4827l6.4251 6.4827 2.046-1.9139 2.046-1.9139 3.75 3.4447c4.2863 3.9373 4.3401 4.1082 2.0794 6.6062l-1.6706 1.846 2.6379 2.7534 2.6379 2.7534 4.0327 10.871c4.0987 11.049 4.7272 14.041 3.1536 15.013-0.48354 0.29884-5.996-1.3165-12.25-3.5896l-11.371-4.1329-3.235-3.0331c-1.7793-1.6682-3.3543-2.8243-3.5-2.5691-0.14574 0.2552-4.9391 5.2439-10.652 11.086l-10.387 10.622 13.887 13.416c7.6378 7.3789 16.024 15.354 18.637 17.723 2.6125 2.3687 4.75 5.0922 4.75 6.0521 0 1.8924-8.2122 10-10.129 10-0.64555 0-3.4681-2.3806-6.2723-5.2903s-10.824-11.204-17.822-18.433l-12.727-13.136-17.852 18.436c-9.818 10.14-18.511 18.43-19.318 18.43-0.80657 0-3.3602-1.9295-5.6747-4.2878z"/>
</svg>
